<svg width="64" height="64" viewBox="0 0 52 52" fill="none" xmlns="http://www.w3.org/2000/svg">
  <defs>
    <linearGradient id="brand-shell" x1="6" y1="5" x2="44" y2="47" gradientUnits="userSpaceOnUse">
      <stop stop-color="#0B0D0C" />
      <stop offset="0.62" stop-color="#050605" />
      <stop offset="1" stop-color="#020303" />
    </linearGradient>
    <linearGradient id="brand-line" x1="15" y1="13" x2="29" y2="37" gradientUnits="userSpaceOnUse">
      <stop stop-color="#FCFFFD" />
      <stop offset="1" stop-color="#D7E8DE" />
    </linearGradient>
    <linearGradient id="brand-arc" x1="27" y1="14" x2="39" y2="37" gradientUnits="userSpaceOnUse">
      <stop stop-color="#2AF598" />
      <stop offset="1" stop-color="#12B76A" />
    </linearGradient>
    <radialGradient id="brand-glow" cx="0" cy="0" r="1" gradientUnits="userSpaceOnUse" gradientTransform="translate(35 16) rotate(136) scale(16 18)">
      <stop stop-color="#2AF598" stop-opacity="0.28" />
      <stop offset="1" stop-color="#2AF598" stop-opacity="0" />
    </radialGradient>
  </defs>

  <rect x="2.5" y="2.5" width="47" height="47" rx="15" fill="url(#brand-shell)" stroke="#2AF598" stroke-opacity="0.15" />
  <circle cx="34" cy="17" r="12" fill="url(#brand-glow)" />

  <path d="M16 13.5V38.5" stroke="url(#brand-line)" stroke-width="4.5" stroke-linecap="round" />
  <path d="M18.8 26L30.4 15.4" stroke="url(#brand-line)" stroke-width="4.5" stroke-linecap="round" />
  <path d="M18.8 26L30.8 36.6" stroke="url(#brand-line)" stroke-width="4.5" stroke-linecap="round" />

  <path d="M28.9 16.6C34 18 37.5 21.6 37.5 26C37.5 30.4 34 34 28.9 35.4" stroke="url(#brand-arc)" stroke-width="2.6" stroke-linecap="round" />
  <path d="M31.8 13C38.6 15.1 43 20 43 26C43 32 38.6 36.9 31.8 39" stroke="url(#brand-arc)" stroke-width="2.2" stroke-linecap="round" stroke-opacity="0.9" />

  <circle cx="39.6" cy="12.8" r="1.8" fill="#2AF598" />
</svg>
